<svg width="175" height="44" viewBox="0 0 175 44" fill="none" xmlns="http://www.w3.org/2000/svg">
<path d="M58.4893 0.590105V34.9266C58.4893 35.004 58.474 35.0808 58.4444 35.1523C58.4148 35.2239 58.3713 35.2889 58.3164 35.3437C58.2616 35.3984 58.1965 35.4419 58.1248 35.4716C58.0532 35.5011 57.9764 35.5164 57.8989 35.5164H53.5165C53.4389 35.5164 53.3621 35.5011 53.2905 35.4716C53.2188 35.4419 53.1537 35.3985 53.0988 35.3437C53.0439 35.289 53.0005 35.2239 52.9708 35.1524C52.9411 35.0808 52.9258 35.004 52.9258 34.9266V0.590105C52.9258 0.4336 52.988 0.283505 53.0988 0.172838C53.2096 0.062172 53.3598 0 53.5165 0H57.9001C58.0565 0.000342635 58.2064 0.0626785 58.3169 0.173317C58.4274 0.283956 58.4893 0.433853 58.4893 0.590105Z" fill="#021C2B"/>
<path d="M144.618 0.590105V34.9266C144.618 35.083 144.556 35.233 144.445 35.3436C144.334 35.4542 144.184 35.5164 144.028 35.5164H139.645C139.567 35.5164 139.491 35.5011 139.419 35.4716C139.347 35.4419 139.282 35.3984 139.227 35.3437C139.172 35.2889 139.129 35.2239 139.099 35.1523C139.07 35.0808 139.054 35.004 139.055 34.9266V0.590105C139.054 0.512627 139.07 0.4359 139.099 0.364307C139.129 0.292714 139.172 0.227659 139.227 0.172858C139.282 0.118057 139.347 0.0745872 139.419 0.0449278C139.491 0.0152682 139.567 -1.1644e-08 139.645 0H144.028C144.184 8.57263e-05 144.334 0.0622949 144.445 0.172952C144.556 0.283609 144.618 0.433656 144.618 0.590105Z" fill="#021C2B"/>
<path d="M87.4391 22.4692C87.4373 23.0693 87.4035 23.6688 87.3391 24.2655C87.3277 24.3819 87.2735 24.49 87.1867 24.5688C87.1 24.6475 86.9874 24.6913 86.8699 24.6916H69.1679C69.0999 24.6916 69.0324 24.7062 68.9704 24.7345C68.9083 24.7628 68.8535 24.8042 68.809 24.8557C68.7644 24.9072 68.7313 24.9678 68.7126 25.0331C68.6933 25.0985 68.6885 25.1672 68.6988 25.2345C69.4245 29.632 72.2034 31.553 75.8766 31.553C79.1873 31.553 81.3929 30.3217 82.7709 27.6191C82.8022 27.5546 82.848 27.498 82.9046 27.454C82.9618 27.41 83.0274 27.3796 83.0979 27.3653C83.1684 27.351 83.2412 27.3531 83.3105 27.3714C83.3804 27.3897 83.4442 27.4239 83.4984 27.4711L86.7459 30.3618C86.8314 30.4377 86.8868 30.5417 86.9018 30.6549C86.9169 30.7682 86.891 30.8831 86.8284 30.9787C84.4169 34.5591 80.2335 36.2402 75.7321 36.2402C67.7984 36.2402 62.7676 30.7796 62.7676 22.9998C62.7676 15.2202 68.0893 9.51953 75.3936 9.51953C82.7949 9.51989 87.4391 14.7865 87.4391 22.4692ZM80.9556 20.632C81.0188 20.6324 81.0815 20.62 81.1399 20.5956C81.1983 20.5712 81.2507 20.5353 81.2953 20.49C81.3393 20.4447 81.3736 20.391 81.3965 20.332C81.4194 20.273 81.4302 20.2101 81.4278 20.147C81.2447 16.554 79.0024 14.2074 75.2973 14.2074C72.151 14.2074 69.5811 16.1071 68.7698 20.0758C68.7572 20.1439 68.7596 20.2138 68.7771 20.2808C68.7945 20.3477 68.827 20.41 68.871 20.4631C68.9156 20.5162 68.971 20.559 69.0342 20.5882C69.0969 20.6175 69.1649 20.6325 69.2342 20.6323L80.9556 20.632Z" fill="#021C2B"/>
<path d="M166.926 15.1763L162.232 27.3396C162.201 27.4206 162.146 27.4904 162.074 27.5398C162.003 27.5893 161.919 27.616 161.831 27.6164C161.744 27.6169 161.66 27.5912 161.587 27.5426C161.515 27.494 161.46 27.4248 161.427 27.3441L154.742 10.5841C154.711 10.5037 154.655 10.4347 154.583 10.3861C154.512 10.3375 154.427 10.3115 154.341 10.3115H149.124C149.041 10.3115 148.96 10.3321 148.887 10.3713C148.814 10.4104 148.751 10.467 148.705 10.5361C148.659 10.6051 148.631 10.6844 148.623 10.7669C148.616 10.8494 148.628 10.9325 148.661 11.009L148.977 11.7633L148.945 11.7019L158.639 34.7655C158.401 35.5013 158.006 36.1767 157.48 36.7447C157.339 36.8997 157.179 37.0361 157.004 37.1505C156.718 37.3445 156.402 37.4887 156.067 37.5767C155.522 37.7328 154.956 37.8056 154.388 37.793H154.373C154.293 37.7956 154.217 37.7995 154.135 37.8008L150.533 37.8438C150.421 37.8451 150.313 37.8903 150.234 37.9696C150.154 38.0489 150.109 38.1563 150.107 38.2687L150.034 42.9248C150.034 42.9822 150.044 43.0391 150.066 43.0924C150.087 43.1456 150.119 43.194 150.159 43.2349C150.199 43.2758 150.247 43.3082 150.3 43.3304C150.353 43.3526 150.41 43.3639 150.468 43.3639H155.648C159.821 43.3639 161.831 42.3037 163.389 38.4976L171.663 18.2367C171.706 18.1322 171.707 18.0152 171.664 17.9105C171.622 17.8058 171.54 17.7218 171.437 17.6764L166.966 15.1995L167 15.1766L166.926 15.1763Z" fill="#021C2B"/>
<path d="M166.926 15.1763L162.232 27.3396C162.201 27.4206 162.146 27.4904 162.074 27.5398C162.003 27.5893 161.919 27.616 161.831 27.6164C161.744 27.6169 161.66 27.5912 161.587 27.5426C161.515 27.494 161.46 27.4248 161.427 27.3441L154.742 10.5841C154.711 10.5037 154.655 10.4347 154.583 10.3861C154.512 10.3375 154.427 10.3115 154.341 10.3115H149.124C149.041 10.3115 148.96 10.3321 148.887 10.3713C148.814 10.4104 148.751 10.467 148.705 10.5361C148.659 10.6051 148.631 10.6844 148.623 10.7669C148.616 10.8494 148.628 10.9325 148.661 11.009L148.977 11.7633L148.945 11.7019L158.639 34.7655C158.401 35.5013 158.006 36.1767 157.48 36.7447C157.339 36.8997 157.179 37.0361 157.004 37.1505C156.718 37.3445 156.402 37.4887 156.067 37.5767C155.522 37.7328 154.956 37.8056 154.388 37.793H154.373C154.293 37.7956 154.217 37.7995 154.135 37.8008L150.533 37.8438C150.421 37.8451 150.313 37.8903 150.234 37.9696C150.154 38.0489 150.109 38.1563 150.107 38.2687L150.034 42.9248C150.034 42.9822 150.044 43.0391 150.066 43.0924C150.087 43.1456 150.119 43.194 150.159 43.2349C150.199 43.2758 150.247 43.3082 150.3 43.3304C150.353 43.3526 150.41 43.3639 150.468 43.3639H155.648C159.821 43.3639 161.831 42.3037 163.389 38.4976L171.663 18.2367C171.706 18.1322 171.707 18.0152 171.664 17.9105C171.622 17.8058 171.54 17.7218 171.437 17.6764L166.966 15.1995L167 15.1766L166.926 15.1763Z" fill="#021C2B"/>
<path d="M173.085 14.83L174.615 11.0931C174.651 11.007 174.664 10.9136 174.654 10.8212C174.645 10.7287 174.613 10.64 174.561 10.5628C174.509 10.4857 174.439 10.4225 174.357 10.3788C174.274 10.3351 174.183 10.3124 174.09 10.3125L169.105 10.3206C169.018 10.3206 168.933 10.347 168.86 10.3963C168.789 10.4457 168.733 10.5157 168.702 10.5971L166.928 15.1951H172.541C172.658 15.1951 172.772 15.1604 172.869 15.0954C172.966 15.0304 173.041 14.938 173.085 14.83Z" fill="#8D46EF"/>
<path d="M132.866 10.4216H126.464C126.415 10.4216 126.365 10.4118 126.319 10.3928C126.274 10.3738 126.232 10.3459 126.197 10.3108C126.162 10.2757 126.133 10.2339 126.115 10.188C126.095 10.1421 126.086 10.0929 126.086 10.0433V1.7084C126.086 1.63823 126.067 1.56945 126.029 1.50977C125.992 1.45008 125.939 1.40185 125.877 1.37047C125.814 1.33909 125.744 1.3258 125.674 1.33209C125.603 1.33837 125.536 1.36399 125.48 1.40607L120.675 4.99521C120.627 5.03041 120.589 5.07618 120.563 5.12884C120.536 5.1815 120.523 5.2396 120.523 5.29851V10.0455C120.52 10.0771 120.514 10.1083 120.504 10.1383V15.4939C120.514 15.5239 120.521 15.5549 120.523 15.5864V28.1597C120.523 33.9091 123.523 36.1787 128.989 36.1787C130.2 36.1579 131.406 36.0111 132.587 35.7406C132.666 35.7177 132.735 35.6698 132.784 35.604C132.833 35.5382 132.86 35.4582 132.859 35.3761V31.2322C132.86 31.1767 132.847 31.1219 132.825 31.0715C132.801 31.0212 132.767 30.9767 132.724 30.9411C132.682 30.9056 132.632 30.8799 132.578 30.866C132.524 30.8521 132.468 30.8503 132.413 30.8607C131.555 31.0268 130.684 31.1254 129.81 31.1552C127.295 31.1552 126.086 30.5247 126.086 27.4322V15.5855C126.086 15.4852 126.126 15.3891 126.197 15.3182C126.268 15.2473 126.364 15.2074 126.465 15.2074H132.866C132.967 15.2074 133.063 15.1675 133.134 15.0965C133.205 15.0256 133.245 14.9295 133.245 14.8291V10.8016C133.245 10.7517 133.235 10.7023 133.217 10.6562C133.198 10.6101 133.17 10.5682 133.135 10.5329C133.099 10.4975 133.058 10.4696 133.011 10.4505C132.966 10.4313 132.916 10.4216 132.866 10.4216Z" fill="#021C2B"/>
<path d="M166.926 15.1763L162.232 27.3396C162.201 27.4206 162.146 27.4904 162.074 27.5398C162.003 27.5893 161.919 27.616 161.831 27.6164C161.744 27.6169 161.66 27.5912 161.587 27.5426C161.515 27.494 161.46 27.4248 161.427 27.3441L154.742 10.5841C154.711 10.5037 154.655 10.4347 154.583 10.3861C154.512 10.3375 154.427 10.3115 154.341 10.3115H149.124C149.041 10.3115 148.96 10.3321 148.887 10.3713C148.814 10.4104 148.751 10.467 148.705 10.5361C148.659 10.6051 148.631 10.6844 148.623 10.7669C148.616 10.8494 148.628 10.9325 148.661 11.009L148.977 11.7633L148.945 11.7019L158.639 34.7655C158.401 35.5013 158.006 36.1767 157.48 36.7447C157.339 36.8997 157.179 37.0361 157.004 37.1505C156.718 37.3445 156.402 37.4887 156.067 37.5767C155.522 37.7328 154.956 37.8056 154.388 37.793H154.373C154.293 37.7956 154.217 37.7995 154.135 37.8008L150.533 37.8438C150.421 37.8451 150.313 37.8903 150.234 37.9696C150.154 38.0489 150.109 38.1563 150.107 38.2687L150.034 42.9248C150.034 42.9822 150.044 43.0391 150.066 43.0924C150.087 43.1456 150.119 43.194 150.159 43.2349C150.199 43.2758 150.247 43.3082 150.3 43.3304C150.353 43.3526 150.41 43.3639 150.468 43.3639H155.648C159.821 43.3639 161.831 42.3037 163.389 38.4976L171.663 18.2367C171.706 18.1322 171.707 18.0152 171.664 17.9105C171.622 17.8058 171.54 17.7218 171.437 17.6764L166.966 15.1995L167 15.1766L166.926 15.1763Z" fill="#021C2B"/>
<path d="M17.2233 10.7678C17.2233 10.6675 17.1833 10.5713 17.1123 10.5004C17.0413 10.4294 16.945 10.3895 16.8445 10.3895H10.4433C10.3937 10.3895 10.3444 10.3797 10.2985 10.3607C10.2525 10.3417 10.2108 10.3138 10.1757 10.2787C10.1405 10.2435 10.1127 10.2019 10.0937 10.156C10.0747 10.1101 10.0649 10.0609 10.0649 10.0112V1.67535C10.065 1.60515 10.0455 1.53632 10.0086 1.47657C9.97171 1.41682 9.91889 1.36851 9.85607 1.33703C9.79325 1.30556 9.72291 1.29216 9.65292 1.29835C9.58288 1.30453 9.51597 1.33005 9.45966 1.37205L4.65329 4.96119C4.60609 4.99645 4.56779 5.04223 4.54143 5.09489C4.51508 5.14754 4.5014 5.20562 4.50148 5.26449V5.26708C4.50148 5.2716 4.49824 5.27613 4.49824 5.28066V10.0274C4.49824 10.1277 4.45835 10.224 4.38732 10.2949C4.3163 10.3659 4.21998 10.4057 4.11954 10.4057H0.378715C0.328997 10.4057 0.279759 10.4154 0.233814 10.4344C0.187868 10.4534 0.146111 10.4812 0.11094 10.5163C0.0757695 10.5514 0.04787 10.5931 0.028834 10.6389C0.00979807 10.6848 -1.81908e-08 10.734 0 10.7837V14.812C-1.81908e-08 14.8616 0.00979807 14.9108 0.028834 14.9567C0.04787 15.0025 0.0757695 15.0442 0.11094 15.0793C0.146111 15.1144 0.187868 15.1422 0.233814 15.1612C0.279759 15.1803 0.328997 15.1899 0.378715 15.1899H4.11954C4.21998 15.1899 4.3163 15.2298 4.38732 15.3007C4.45835 15.3717 4.49824 15.4679 4.49824 15.5682V28.1422C4.49824 33.891 7.49817 36.1612 12.9645 36.1612C14.1756 36.1404 15.3813 35.9936 16.562 35.723C16.623 35.7052 16.6784 35.672 16.7231 35.6267C16.7677 35.5815 16.8 35.5256 16.817 35.4644C16.8305 35.4246 16.8375 35.3829 16.8377 35.3408V31.1956C16.838 31.1402 16.8261 31.0854 16.8027 31.0352C16.7793 30.985 16.745 30.9406 16.7025 30.9052C16.6598 30.8698 16.6099 30.8442 16.5562 30.8303C16.5026 30.8165 16.4465 30.8146 16.3921 30.825C15.5333 30.9908 14.6628 31.0889 13.7886 31.1186C11.2739 31.1186 10.0663 30.4887 10.0663 27.3963V17.8249L10.0627 17.8229V15.5679C10.0627 15.5182 10.0725 15.469 10.0916 15.4231C10.1106 15.3773 10.1385 15.3355 10.1736 15.3004C10.2088 15.2653 10.2506 15.2374 10.2965 15.2184C10.3425 15.1994 10.3917 15.1896 10.4414 15.1896H16.8429C16.8927 15.1896 16.9419 15.1799 16.9878 15.1609C17.0338 15.1419 17.0755 15.1141 17.1107 15.079C17.1459 15.0439 17.1737 15.0022 17.1928 14.9563C17.2118 14.9104 17.2216 14.8613 17.2216 14.8116C17.2216 14.8061 17.2249 14.8016 17.2249 14.7958L17.2233 10.7678Z" fill="#021C2B"/>
<path d="M46.723 10.3546H42.1225C41.995 10.3546 41.8727 10.4052 41.7825 10.4953C41.6923 10.5853 41.6416 10.7074 41.6416 10.8348V13.4012C39.6583 11.033 36.7568 9.48682 32.8869 9.48682C25.3298 9.48682 20.2182 15.2747 20.166 22.8064V22.9073C20.2178 30.4377 25.3288 36.2256 32.8869 36.2256C36.7568 36.2256 39.6583 34.6793 41.6416 32.3111V35.0412C41.6416 35.1671 41.6916 35.2878 41.7807 35.3768C41.8698 35.4658 41.9907 35.5158 42.1167 35.5158H46.7286C46.8546 35.5158 46.9755 35.4658 47.0645 35.3768C47.1537 35.2878 47.2037 35.1671 47.2037 35.0412V22.9409V10.8348C47.2037 10.7075 47.153 10.5854 47.0629 10.4954C46.9728 10.4053 46.8505 10.3548 46.723 10.3546ZM33.9019 31.2018C29.1816 31.2018 25.9503 27.7029 25.9228 22.8568C25.9503 18.0108 29.1816 14.5113 33.9019 14.5113C38.4293 14.5113 41.804 17.9624 41.8322 22.8559C41.8043 27.75 38.4296 31.2018 33.9019 31.2018ZM44.8939 22.8594L44.8085 22.8571L44.8939 22.8549V22.8594Z" fill="#021C2B"/>
<path d="M105.965 9.52114C101.102 9.44447 99.2565 12.1176 97.9833 14.1359V11.005C97.9833 10.8418 97.9182 10.6853 97.8032 10.5698C97.6875 10.4542 97.5316 10.3891 97.3677 10.3887H93.0368C92.8736 10.3891 92.717 10.4542 92.602 10.5698C92.4863 10.6853 92.4219 10.8418 92.4219 11.005V34.9002C92.4219 35.0634 92.4863 35.2199 92.602 35.3354C92.717 35.451 92.8736 35.5161 93.0368 35.5166H97.3665C97.5298 35.5161 97.6863 35.451 97.802 35.3354C97.917 35.2199 97.9821 35.0634 97.9815 34.9002V22.1313C97.9815 17.3493 100.353 14.642 104.368 14.642C108.092 14.642 109.785 16.7191 109.785 21.2612V34.9009C109.785 35.0643 109.85 35.221 109.966 35.3366C110.082 35.4521 110.238 35.5171 110.402 35.5172H114.731C114.894 35.5171 115.051 35.4521 115.167 35.3366C115.282 35.221 115.347 35.0643 115.347 34.9009V20.4871C115.349 13.4352 112.06 9.52114 105.965 9.52114Z" fill="#021C2B"/>
</svg>
